<?xml version="1.0" encoding="UTF-8"?><svg xmlns="http://www.w3.org/2000/svg" xmlns:xlink="http://www.w3.org/1999/xlink" fill-opacity="1" color-rendering="auto" color-interpolation="auto" text-rendering="auto" stroke="black" stroke-linecap="square" width="1192" stroke-miterlimit="10" shape-rendering="auto" stroke-opacity="1" fill="black" stroke-dasharray="none" font-weight="normal" stroke-width="1" height="936" font-family="'Dialog'" font-style="normal" stroke-linejoin="miter" font-size="12px" stroke-dashoffset="0" image-rendering="auto">
  <!--Generated by ySVG 2.5-->
  <defs id="genericDefs"/>
  <g>
    <defs id="defs1">
      <linearGradient x1="-267.375" gradientUnits="userSpaceOnUse" x2="-267.375" y1="596" y2="637.3438" id="linearGradient1" spreadMethod="pad">
        <stop stop-opacity="1" stop-color="rgb(255,204,153)" offset="0%"/>
        <stop stop-opacity="1" stop-color="rgb(255,204,153)" offset="100%"/>
      </linearGradient>
      <linearGradient x1="43.25" gradientUnits="userSpaceOnUse" x2="43.25" y1="596" y2="637.3438" id="linearGradient2" spreadMethod="pad">
        <stop stop-opacity="1" stop-color="rgb(255,204,153)" offset="0%"/>
        <stop stop-opacity="1" stop-color="rgb(255,204,153)" offset="100%"/>
      </linearGradient>
      <linearGradient x1="-267.375" gradientUnits="userSpaceOnUse" x2="-267.375" y1="769.8228" y2="811.1666" id="linearGradient3" spreadMethod="pad">
        <stop stop-opacity="1" stop-color="rgb(153,204,255)" offset="0%"/>
        <stop stop-opacity="1" stop-color="rgb(153,204,255)" offset="100%"/>
      </linearGradient>
      <linearGradient x1="-267.375" gradientUnits="userSpaceOnUse" x2="-267.375" y1="962.5745" y2="1003.9182" id="linearGradient4" spreadMethod="pad">
        <stop stop-opacity="1" stop-color="rgb(153,204,255)" offset="0%"/>
        <stop stop-opacity="1" stop-color="rgb(153,204,255)" offset="100%"/>
      </linearGradient>
      <linearGradient x1="44.6836" gradientUnits="userSpaceOnUse" x2="44.6836" y1="769.8228" y2="811.1666" id="linearGradient5" spreadMethod="pad">
        <stop stop-opacity="1" stop-color="rgb(153,204,255)" offset="0%"/>
        <stop stop-opacity="1" stop-color="rgb(153,204,255)" offset="100%"/>
      </linearGradient>
      <linearGradient x1="44.6836" gradientUnits="userSpaceOnUse" x2="44.6836" y1="962.5745" y2="1003.9182" id="linearGradient6" spreadMethod="pad">
        <stop stop-opacity="1" stop-color="rgb(153,204,255)" offset="0%"/>
        <stop stop-opacity="1" stop-color="rgb(153,204,255)" offset="100%"/>
      </linearGradient>
      <linearGradient x1="252" gradientUnits="userSpaceOnUse" x2="270.3622" y1="780.1666" y2="818.4859" id="linearGradient7" spreadMethod="pad">
        <stop stop-opacity="0.8627" stop-color="rgb(204,255,204)" offset="0%"/>
        <stop stop-opacity="0.1255" stop-color="rgb(204,255,204)" offset="100%"/>
      </linearGradient>
      <linearGradient x1="252" gradientUnits="userSpaceOnUse" x2="270.3622" y1="972.9182" y2="1011.2375" id="linearGradient8" spreadMethod="pad">
        <stop stop-opacity="0.8627" stop-color="rgb(204,255,204)" offset="0%"/>
        <stop stop-opacity="0.1255" stop-color="rgb(204,255,204)" offset="100%"/>
      </linearGradient>
      <linearGradient x1="512.0664" gradientUnits="userSpaceOnUse" x2="512.0664" y1="799.1468" y2="840.4905" id="linearGradient9" spreadMethod="pad">
        <stop stop-opacity="1" stop-color="rgb(255,204,153)" offset="0%"/>
        <stop stop-opacity="1" stop-color="rgb(255,204,153)" offset="100%"/>
      </linearGradient>
      <linearGradient x1="513.5" gradientUnits="userSpaceOnUse" x2="513.5" y1="930.0397" y2="971.3834" id="linearGradient10" spreadMethod="pad">
        <stop stop-opacity="1" stop-color="rgb(153,204,255)" offset="0%"/>
        <stop stop-opacity="1" stop-color="rgb(153,204,255)" offset="100%"/>
      </linearGradient>
      <linearGradient x1="513.5" gradientUnits="userSpaceOnUse" x2="531.8622" y1="1061.9326" y2="1100.252" id="linearGradient11" spreadMethod="pad">
        <stop stop-opacity="0.8627" stop-color="rgb(204,255,204)" offset="0%"/>
        <stop stop-opacity="0.1255" stop-color="rgb(204,255,204)" offset="100%"/>
      </linearGradient>
      <linearGradient x1="490.0352" gradientUnits="userSpaceOnUse" x2="677.0352" y1="1174.1381" y2="1280.3881" id="linearGradient12" spreadMethod="reflect">
        <stop stop-opacity="1" stop-color="rgb(204,255,255)" offset="0%"/>
        <stop stop-opacity="1" stop-color="rgb(204,255,255)" offset="100%"/>
      </linearGradient>
      <linearGradient x1="513.5" gradientUnits="userSpaceOnUse" x2="513.5" y1="1331.5934" y2="1372.9371" id="linearGradient13" spreadMethod="pad">
        <stop stop-opacity="1" stop-color="rgb(204,255,255)" offset="0%"/>
        <stop stop-opacity="1" stop-color="rgb(204,255,255)" offset="100%"/>
      </linearGradient>
      <linearGradient x1="44.6836" gradientUnits="userSpaceOnUse" x2="44.6836" y1="1225.0934" y2="1266.4371" id="linearGradient14" spreadMethod="pad">
        <stop stop-opacity="1" stop-color="rgb(204,255,255)" offset="0%"/>
        <stop stop-opacity="1" stop-color="rgb(204,255,255)" offset="100%"/>
      </linearGradient>
      <linearGradient x1="-159.5488" gradientUnits="userSpaceOnUse" x2="12.4512" y1="1115.9364" y2="1222.1864" id="linearGradient15" spreadMethod="reflect">
        <stop stop-opacity="1" stop-color="rgb(204,255,255)" offset="0%"/>
        <stop stop-opacity="1" stop-color="rgb(204,255,255)" offset="100%"/>
      </linearGradient>
      <linearGradient x1="44.6836" gradientUnits="userSpaceOnUse" x2="44.6836" y1="1407.5934" y2="1448.9371" id="linearGradient16" spreadMethod="pad">
        <stop stop-opacity="1" stop-color="rgb(204,255,255)" offset="0%"/>
        <stop stop-opacity="1" stop-color="rgb(204,255,255)" offset="100%"/>
      </linearGradient>
      <linearGradient x1="-453.0664" gradientUnits="userSpaceOnUse" x2="-438.3444" y1="1135.5614" y2="1184.1449" id="linearGradient17" spreadMethod="pad">
        <stop stop-opacity="0.8627" stop-color="rgb(204,255,204)" offset="0%"/>
        <stop stop-opacity="0.1255" stop-color="rgb(204,255,204)" offset="100%"/>
      </linearGradient>
      <linearGradient x1="-159.5488" gradientUnits="userSpaceOnUse" x2="12.4512" y1="1303.5621" y2="1409.8121" id="linearGradient18" spreadMethod="reflect">
        <stop stop-opacity="1" stop-color="rgb(204,255,255)" offset="0%"/>
        <stop stop-opacity="1" stop-color="rgb(204,255,255)" offset="100%"/>
      </linearGradient>
      <linearGradient x1="-453.0664" gradientUnits="userSpaceOnUse" x2="-438.3444" y1="1323.1871" y2="1371.7706" id="linearGradient19" spreadMethod="pad">
        <stop stop-opacity="0.8627" stop-color="rgb(204,255,204)" offset="0%"/>
        <stop stop-opacity="0.1255" stop-color="rgb(204,255,204)" offset="100%"/>
      </linearGradient>
      <clipPath clipPathUnits="userSpaceOnUse" id="clipPath1">
        <path d="M0 0 L1192 0 L1192 936 L0 936 L0 0 Z"/>
      </clipPath>
      <clipPath clipPathUnits="userSpaceOnUse" id="clipPath2">
        <path d="M-484 582 L708 582 L708 1518 L-484 1518 L-484 582 Z"/>
      </clipPath>
    </defs>
    <g fill="white" text-rendering="geometricPrecision" shape-rendering="geometricPrecision" transform="translate(484,-582)" stroke="white">
      <rect x="-484" width="1192" height="936" y="582" clip-path="url(#clipPath2)" stroke="none"/>
    </g>
    <g fill="rgb(255,204,153)" text-rendering="geometricPrecision" shape-rendering="geometricPrecision" transform="matrix(1,0,0,1,484,-582)" stroke="rgb(255,204,153)">
      <path d="M-267.375 635.3438 L-124.4375 635.3438 L-124.4375 665.6875 Q-124.4375 675.6875 -134.4375 675.6875 L-257.375 675.6875 Q-267.375 675.6875 -267.375 665.6875 Z" stroke="none" clip-path="url(#clipPath2)"/>
      <path fill="url(#linearGradient1)" d="M-267.375 607 Q-267.375 597 -257.375 597 L-134.4375 597 Q-124.4375 597 -124.4375 607 L-124.4375 636.3438 L-267.375 636.3438 Z" clip-path="url(#clipPath2)" stroke="none"/>
      <path fill="none" d="M-265.375 607 Q-265.375 599 -257.375 599 L-134.4375 599 Q-126.4375 599 -126.4375 607 L-126.4375 665.6875 Q-126.4375 673.6875 -134.4375 673.6875 L-257.375 673.6875 Q-265.375 673.6875 -265.375 665.6875 Z" stroke-width="2" clip-path="url(#clipPath2)"/>
      <path fill="none" d="M-265.375 607 Q-265.375 599 -257.375 599 L-134.4375 599 Q-126.4375 599 -126.4375 607 L-126.4375 665.6875 Q-126.4375 673.6875 -134.4375 673.6875 L-257.375 673.6875 Q-265.375 673.6875 -265.375 665.6875 Z" clip-path="url(#clipPath2)"/>
    </g>
    <g text-rendering="geometricPrecision" stroke-miterlimit="1.45" shape-rendering="geometricPrecision" font-family="sans-serif" transform="matrix(1,0,0,1,484,-582)" stroke-linecap="butt">
      <text x="-214.0088" xml:space="preserve" y="633.5137" clip-path="url(#clipPath2)" stroke="none">CAEX </text>
      <text x="-244.6211" xml:space="preserve" y="647.4824" clip-path="url(#clipPath2)" stroke="none">&lt;XML Schema&gt;</text>
    </g>
    <g fill="rgb(255,204,153)" text-rendering="geometricPrecision" shape-rendering="geometricPrecision" transform="matrix(1,0,0,1,484,-582)" stroke="rgb(255,204,153)">
      <path d="M43.25 635.3438 L186.1875 635.3438 L186.1875 665.6875 Q186.1875 675.6875 176.1875 675.6875 L53.25 675.6875 Q43.25 675.6875 43.25 665.6875 Z" stroke="none" clip-path="url(#clipPath2)"/>
      <path fill="url(#linearGradient2)" d="M43.25 607 Q43.25 597 53.25 597 L176.1875 597 Q186.1875 597 186.1875 607 L186.1875 636.3438 L43.25 636.3438 Z" clip-path="url(#clipPath2)" stroke="none"/>
      <path fill="none" d="M45.25 607 Q45.25 599 53.25 599 L176.1875 599 Q184.1875 599 184.1875 607 L184.1875 665.6875 Q184.1875 673.6875 176.1875 673.6875 L53.25 673.6875 Q45.25 673.6875 45.25 665.6875 Z" stroke-width="2" clip-path="url(#clipPath2)"/>
      <path fill="none" d="M45.25 607 Q45.25 599 53.25 599 L176.1875 599 Q184.1875 599 184.1875 607 L184.1875 665.6875 Q184.1875 673.6875 176.1875 673.6875 L53.25 673.6875 Q45.25 673.6875 45.25 665.6875 Z" clip-path="url(#clipPath2)"/>
    </g>
    <g text-rendering="geometricPrecision" stroke-miterlimit="1.45" shape-rendering="geometricPrecision" font-family="sans-serif" transform="matrix(1,0,0,1,484,-582)" stroke-linecap="butt">
      <text x="71.2539" xml:space="preserve" y="633.5137" clip-path="url(#clipPath2)" stroke="none">AutomationML</text>
      <text x="59.043" xml:space="preserve" y="647.4824" clip-path="url(#clipPath2)" stroke="none">&lt;XML Document&gt;</text>
    </g>
    <g text-rendering="geometricPrecision" stroke-miterlimit="1.45" stroke-dasharray="6,2" shape-rendering="geometricPrecision" transform="matrix(1,0,0,1,484,-582)" stroke-linecap="butt">
      <path fill="none" d="M43.2431 636.3438 L-119.4125 636.3438" clip-path="url(#clipPath2)"/>
    </g>
    <g text-rendering="geometricPrecision" stroke-miterlimit="1.45" stroke-dasharray="6,2" shape-rendering="geometricPrecision" transform="matrix(1,0,0,1,484,-582)" stroke-linecap="butt">
      <path d="M-123.4125 636.3438 L-111.4125 642.3438 L-123.4125 636.3438 L-111.4125 630.3438 Z" stroke="none" clip-path="url(#clipPath2)"/>
      <path fill="none" stroke-miterlimit="10" stroke-dasharray="none" d="M-123.4125 636.3438 L-111.4125 642.3438 L-123.4125 636.3438 L-111.4125 630.3438 Z" clip-path="url(#clipPath2)" stroke-linecap="square"/>
      <text x="-87.4666" y="627.0302" clip-path="url(#clipPath2)" font-family="sans-serif" stroke-dasharray="none" stroke="none" xml:space="preserve">&lt;&lt;instanceOf&gt;</text>
    </g>
    <g fill="rgb(245,245,245)" text-rendering="geometricPrecision" shape-rendering="geometricPrecision" transform="matrix(1,0,0,1,484,-582)" stroke="rgb(245,245,245)">
      <rect x="-468.0664" y="700.6119" clip-path="url(#clipPath2)" width="875.1367" rx="4" ry="4" height="356.6501" stroke="none"/>
      <rect x="-468.0664" y="700.6119" clip-path="url(#clipPath2)" fill="rgb(235,235,235)" width="875.1367" height="21.4609" stroke="none"/>
    </g>
    <g font-size="15px" stroke-linecap="butt" transform="matrix(1,0,0,1,484,-582)" text-rendering="geometricPrecision" font-family="sans-serif" shape-rendering="geometricPrecision" stroke-miterlimit="1.45">
      <text x="218.6616" xml:space="preserve" y="716.5352" clip-path="url(#clipPath2)" stroke="none">AutomationML Importing</text>
      <rect x="-468.0664" y="700.6119" clip-path="url(#clipPath2)" fill="none" width="875.1367" stroke-dasharray="6,2" rx="4" ry="4" height="356.6501"/>
    </g>
    <g fill="rgb(153,204,255)" text-rendering="geometricPrecision" shape-rendering="geometricPrecision" transform="matrix(1,0,0,1,484,-582)" stroke="rgb(153,204,255)">
      <path d="M-267.375 809.1666 L-127.3047 809.1666 L-127.3047 839.5103 Q-127.3047 849.5103 -137.3047 849.5103 L-257.375 849.5103 Q-267.375 849.5103 -267.375 839.5103 Z" stroke="none" clip-path="url(#clipPath2)"/>
      <path fill="url(#linearGradient3)" d="M-267.375 780.8228 Q-267.375 770.8228 -257.375 770.8228 L-137.3047 770.8228 Q-127.3047 770.8228 -127.3047 780.8228 L-127.3047 810.1666 L-267.375 810.1666 Z" clip-path="url(#clipPath2)" stroke="none"/>
      <path fill="none" d="M-265.375 780.8228 Q-265.375 772.8228 -257.375 772.8228 L-137.3047 772.8228 Q-129.3047 772.8228 -129.3047 780.8228 L-129.3047 839.5103 Q-129.3047 847.5103 -137.3047 847.5103 L-257.375 847.5103 Q-265.375 847.5103 -265.375 839.5103 Z" stroke-width="2" clip-path="url(#clipPath2)"/>
      <path fill="none" d="M-265.375 780.8228 Q-265.375 772.8228 -257.375 772.8228 L-137.3047 772.8228 Q-129.3047 772.8228 -129.3047 780.8228 L-129.3047 839.5103 Q-129.3047 847.5103 -137.3047 847.5103 L-257.375 847.5103 Q-265.375 847.5103 -265.375 839.5103 Z" clip-path="url(#clipPath2)"/>
    </g>
    <g text-rendering="geometricPrecision" stroke-miterlimit="1.45" shape-rendering="geometricPrecision" font-family="sans-serif" transform="matrix(1,0,0,1,484,-582)" stroke-linecap="butt">
      <text x="-214.2588" xml:space="preserve" y="807.3365" clip-path="url(#clipPath2)" stroke="none">Ecore</text>
      <text x="-240.9746" xml:space="preserve" y="821.3052" clip-path="url(#clipPath2)" stroke="none">&lt;Metamodel&gt;</text>
    </g>
    <g fill="rgb(153,204,255)" text-rendering="geometricPrecision" shape-rendering="geometricPrecision" transform="matrix(1,0,0,1,484,-582)" stroke="rgb(153,204,255)">
      <path d="M-267.375 1001.9182 L-127.3047 1001.9182 L-127.3047 1032.262 Q-127.3047 1042.262 -137.3047 1042.262 L-257.375 1042.262 Q-267.375 1042.262 -267.375 1032.262 Z" stroke="none" clip-path="url(#clipPath2)"/>
      <path fill="url(#linearGradient4)" d="M-267.375 973.5745 Q-267.375 963.5745 -257.375 963.5745 L-137.3047 963.5745 Q-127.3047 963.5745 -127.3047 973.5745 L-127.3047 1002.9182 L-267.375 1002.9182 Z" clip-path="url(#clipPath2)" stroke="none"/>
      <path fill="none" d="M-265.375 973.5745 Q-265.375 965.5745 -257.375 965.5745 L-137.3047 965.5745 Q-129.3047 965.5745 -129.3047 973.5745 L-129.3047 1032.262 Q-129.3047 1040.262 -137.3047 1040.262 L-257.375 1040.262 Q-265.375 1040.262 -265.375 1032.262 Z" stroke-width="2" clip-path="url(#clipPath2)"/>
      <path fill="none" d="M-265.375 973.5745 Q-265.375 965.5745 -257.375 965.5745 L-137.3047 965.5745 Q-129.3047 965.5745 -129.3047 973.5745 L-129.3047 1032.262 Q-129.3047 1040.262 -137.3047 1040.262 L-257.375 1040.262 Q-265.375 1040.262 -265.375 1032.262 Z" clip-path="url(#clipPath2)"/>
    </g>
    <g text-rendering="geometricPrecision" stroke-miterlimit="1.45" shape-rendering="geometricPrecision" font-family="sans-serif" transform="matrix(1,0,0,1,484,-582)" stroke-linecap="butt">
      <text x="-211.9209" xml:space="preserve" y="1000.0881" clip-path="url(#clipPath2)" stroke="none">Java </text>
      <text x="-241.8623" xml:space="preserve" y="1014.0569" clip-path="url(#clipPath2)" stroke="none">&lt;Classmodel&gt;</text>
    </g>
    <g fill="rgb(153,204,255)" text-rendering="geometricPrecision" shape-rendering="geometricPrecision" transform="matrix(1,0,0,1,484,-582)" stroke="rgb(153,204,255)">
      <path d="M44.6836 809.1666 L184.7539 809.1666 L184.7539 839.5103 Q184.7539 849.5103 174.7539 849.5103 L54.6836 849.5103 Q44.6836 849.5103 44.6836 839.5103 Z" stroke="none" clip-path="url(#clipPath2)"/>
      <path fill="url(#linearGradient5)" d="M44.6836 780.8228 Q44.6836 770.8228 54.6836 770.8228 L174.7539 770.8228 Q184.7539 770.8228 184.7539 780.8228 L184.7539 810.1666 L44.6836 810.1666 Z" clip-path="url(#clipPath2)" stroke="none"/>
      <path fill="none" d="M46.6836 780.8228 Q46.6836 772.8228 54.6836 772.8228 L174.7539 772.8228 Q182.7539 772.8228 182.7539 780.8228 L182.7539 839.5103 Q182.7539 847.5103 174.7539 847.5103 L54.6836 847.5103 Q46.6836 847.5103 46.6836 839.5103 Z" stroke-width="2" clip-path="url(#clipPath2)"/>
      <path fill="none" d="M46.6836 780.8228 Q46.6836 772.8228 54.6836 772.8228 L174.7539 772.8228 Q182.7539 772.8228 182.7539 780.8228 L182.7539 839.5103 Q182.7539 847.5103 174.7539 847.5103 L54.6836 847.5103 Q46.6836 847.5103 46.6836 839.5103 Z" clip-path="url(#clipPath2)"/>
    </g>
    <g text-rendering="geometricPrecision" stroke-miterlimit="1.45" shape-rendering="geometricPrecision" font-family="sans-serif" transform="matrix(1,0,0,1,484,-582)" stroke-linecap="butt">
      <text x="87.5078" xml:space="preserve" y="807.3365" clip-path="url(#clipPath2)" stroke="none">Java XML</text>
      <text x="76.0176" xml:space="preserve" y="821.3052" clip-path="url(#clipPath2)" stroke="none">&lt;Instances&gt;</text>
    </g>
    <g fill="rgb(153,204,255)" text-rendering="geometricPrecision" shape-rendering="geometricPrecision" transform="matrix(1,0,0,1,484,-582)" stroke="rgb(153,204,255)">
      <path d="M44.6836 1001.9182 L184.7539 1001.9182 L184.7539 1032.262 Q184.7539 1042.262 174.7539 1042.262 L54.6836 1042.262 Q44.6836 1042.262 44.6836 1032.262 Z" stroke="none" clip-path="url(#clipPath2)"/>
      <path fill="url(#linearGradient6)" d="M44.6836 973.5745 Q44.6836 963.5745 54.6836 963.5745 L174.7539 963.5745 Q184.7539 963.5745 184.7539 973.5745 L184.7539 1002.9182 L44.6836 1002.9182 Z" clip-path="url(#clipPath2)" stroke="none"/>
      <path fill="none" d="M46.6836 973.5745 Q46.6836 965.5745 54.6836 965.5745 L174.7539 965.5745 Q182.7539 965.5745 182.7539 973.5745 L182.7539 1032.262 Q182.7539 1040.262 174.7539 1040.262 L54.6836 1040.262 Q46.6836 1040.262 46.6836 1032.262 Z" stroke-width="2" clip-path="url(#clipPath2)"/>
      <path fill="none" d="M46.6836 973.5745 Q46.6836 965.5745 54.6836 965.5745 L174.7539 965.5745 Q182.7539 965.5745 182.7539 973.5745 L182.7539 1032.262 Q182.7539 1040.262 174.7539 1040.262 L54.6836 1040.262 Q46.6836 1040.262 46.6836 1032.262 Z" clip-path="url(#clipPath2)"/>
    </g>
    <g text-rendering="geometricPrecision" stroke-miterlimit="1.45" shape-rendering="geometricPrecision" font-family="sans-serif" transform="matrix(1,0,0,1,484,-582)" stroke-linecap="butt">
      <text x="100.1377" xml:space="preserve" y="1000.0881" clip-path="url(#clipPath2)" stroke="none">Java </text>
      <text x="76.0176" xml:space="preserve" y="1014.0569" clip-path="url(#clipPath2)" stroke="none">&lt;Instances&gt;</text>
    </g>
    <g fill="rgb(204,255,204)" text-rendering="geometricPrecision" shape-rendering="geometricPrecision" transform="matrix(1,0,0,1,484,-582)" stroke="rgb(204,255,204)">
      <rect x="252" y="780.1666" clip-path="url(#clipPath2)" width="140.0703" rx="1.5" ry="1.5" height="60" stroke="none"/>
      <path fill="url(#linearGradient7)" d="M252.75 783.1666 Q252.75 780.9166 255 780.9166 L340.0457 780.9166 Q342.2957 780.9166 342.2957 783.1666 Q342.2957 785.4166 299.7729 806.4166 Q257.25 827.4166 255 827.4166 Q252.75 827.4166 252.75 825.1666 Z" clip-path="url(#clipPath2)" stroke="none"/>
    </g>
    <g text-rendering="geometricPrecision" stroke-miterlimit="1.45" shape-rendering="geometricPrecision" font-family="'Courier New'" transform="matrix(1,0,0,1,484,-582)" stroke-linecap="butt">
      <text x="286.0293" xml:space="preserve" y="799.7662" clip-path="url(#clipPath2)" stroke="none">elements, </text>
      <text x="282.4287" xml:space="preserve" y="813.3599" clip-path="url(#clipPath2)" stroke="none">attributes,</text>
      <text x="311.2334" xml:space="preserve" y="826.9537" clip-path="url(#clipPath2)" stroke="none">...</text>
    </g>
    <g fill="rgb(204,255,204)" text-rendering="geometricPrecision" shape-rendering="geometricPrecision" transform="matrix(1,0,0,1,484,-582)" stroke="rgb(204,255,204)">
      <rect x="252" y="972.9182" clip-path="url(#clipPath2)" width="140.0703" rx="1.5" ry="1.5" height="60" stroke="none"/>
      <path fill="url(#linearGradient8)" d="M252.75 975.9182 Q252.75 973.6682 255 973.6682 L340.0457 973.6682 Q342.2957 973.6682 342.2957 975.9182 Q342.2957 978.1682 299.7729 999.1682 Q257.25 1020.1682 255 1020.1682 Q252.75 1020.1682 252.75 1017.9182 Z" clip-path="url(#clipPath2)" stroke="none"/>
    </g>
    <g text-rendering="geometricPrecision" stroke-miterlimit="1.45" shape-rendering="geometricPrecision" font-family="'Courier New'" transform="matrix(1,0,0,1,484,-582)" stroke-linecap="butt">
      <text x="282.4287" xml:space="preserve" y="992.5178" clip-path="url(#clipPath2)" stroke="none">RoleClasses</text>
      <text x="264.4258" xml:space="preserve" y="1006.1116" clip-path="url(#clipPath2)" stroke="none">InterfaceClasses</text>
      <text x="286.0293" xml:space="preserve" y="1019.7053" clip-path="url(#clipPath2)" stroke="none">Attributes</text>
    </g>
    <g text-rendering="geometricPrecision" stroke-miterlimit="1.45" shape-rendering="geometricPrecision" transform="matrix(1,0,0,1,484,-582)" stroke-linecap="butt">
      <path fill="none" d="M-196.2307 675.683 L-196.9492 762.8002" clip-path="url(#clipPath2)"/>
      <path d="M-197.0152 770.7999 L-191.9164 758.8416 L-196.9409 761.8002 L-201.916 758.7591 Z" clip-path="url(#clipPath2)" stroke="none"/>
      <text x="-290.7752" xml:space="preserve" y="712.0302" clip-path="url(#clipPath2)" font-family="sans-serif" stroke="none">EMF Modelgen</text>
      <path fill="none" d="M-197.3398 849.5546 L-197.3398 955.5663" clip-path="url(#clipPath2)"/>
      <path d="M-197.3398 963.5663 L-192.3398 951.5663 L-197.3398 954.5663 L-202.3398 951.5663 Z" clip-path="url(#clipPath2)" stroke="none"/>
      <text x="-286.1209" xml:space="preserve" y="908.1013" clip-path="url(#clipPath2)" font-family="sans-serif" stroke="none">EMF Codegen</text>
      <path fill="none" stroke-dasharray="6,2" d="M-275.3626 636.3438 L-333.3817 636.3438 L-333.3817 1002.9182 L-267.3868 1002.9182" clip-path="url(#clipPath2)"/>
      <path stroke-dasharray="6,2" d="M-267.3626 636.3438 L-279.3626 631.3438 L-276.3626 636.3438 L-279.3626 641.3438 Z" clip-path="url(#clipPath2)" stroke="none"/>
      <text x="-432.4274" xml:space="preserve" y="852.3755" clip-path="url(#clipPath2)" font-family="sans-serif" stroke="none">corresponds to</text>
      <path fill="none" d="M114.7188 675.683 L114.7188 762.7999" clip-path="url(#clipPath2)"/>
      <path d="M114.7188 770.7999 L119.7188 758.7999 L114.7188 761.7999 L109.7188 758.7999 Z" clip-path="url(#clipPath2)" stroke="none"/>
      <text x="121.0988" xml:space="preserve" y="710.0302" clip-path="url(#clipPath2)" font-family="sans-serif" stroke="none">parse</text>
      <path fill="none" d="M114.7188 849.5546 L114.7188 955.5663" clip-path="url(#clipPath2)"/>
      <path d="M114.7188 963.5663 L119.7188 951.5663 L114.7188 954.5663 L109.7188 951.5663 Z" clip-path="url(#clipPath2)" stroke="none"/>
      <text x="124.9082" xml:space="preserve" y="910.6967" clip-path="url(#clipPath2)" font-family="sans-serif" stroke="none">import</text>
      <path fill="none" stroke-dasharray="6,2" d="M44.6656 1002.9182 L-122.2965 1002.9182" clip-path="url(#clipPath2)"/>
      <path stroke-dasharray="6,2" d="M-126.2965 1002.9182 L-114.2965 1008.9182 L-126.2965 1002.9182 L-114.2965 996.9182 Z" clip-path="url(#clipPath2)" stroke="none"/>
      <path fill="none" stroke-miterlimit="10" d="M-126.2965 1002.9182 L-114.2965 1008.9182 L-126.2965 1002.9182 L-114.2965 996.9182 Z" clip-path="url(#clipPath2)" stroke-linecap="square"/>
      <text x="-83.6912" xml:space="preserve" y="1021.1013" clip-path="url(#clipPath2)" font-family="sans-serif" stroke="none">&lt;&lt;instaceOf&gt;&gt;</text>
      <path fill="none" stroke-dasharray="6,2" d="M184.7437 810.1666 L252.0152 810.1666" clip-path="url(#clipPath2)"/>
      <path fill="none" stroke-dasharray="6,2" d="M184.7437 1002.9182 L252.0152 1002.9182" clip-path="url(#clipPath2)"/>
    </g>
    <g fill="rgb(245,245,245)" text-rendering="geometricPrecision" shape-rendering="geometricPrecision" transform="matrix(1,0,0,1,484,-582)" stroke="rgb(245,245,245)">
      <rect x="475.0352" y="757.8655" clip-path="url(#clipPath2)" width="217" rx="4" ry="4" height="668.4154" stroke="none"/>
      <rect x="475.0352" y="757.8655" clip-path="url(#clipPath2)" fill="rgb(235,235,235)" width="217" height="27.2812" stroke="none"/>
    </g>
    <g font-size="20px" stroke-linecap="butt" transform="matrix(1,0,0,1,484,-582)" text-rendering="geometricPrecision" font-family="sans-serif" shape-rendering="geometricPrecision" font-weight="bold" stroke-miterlimit="1.45">
      <text x="542.1631" xml:space="preserve" y="778.43" clip-path="url(#clipPath2)" stroke="none">Legend</text>
    </g>
    <g text-rendering="geometricPrecision" stroke-miterlimit="1.45" stroke-dasharray="6,2" shape-rendering="geometricPrecision" transform="matrix(1,0,0,1,484,-582)" stroke-linecap="butt">
      <rect x="475.0352" y="757.8655" clip-path="url(#clipPath2)" fill="none" width="217" rx="4" ry="4" height="668.4154"/>
    </g>
    <g fill="rgb(255,204,153)" text-rendering="geometricPrecision" shape-rendering="geometricPrecision" transform="matrix(1,0,0,1,484,-582)" stroke="rgb(255,204,153)">
      <path d="M512.0664 838.4905 L655.0039 838.4905 L655.0039 868.8343 Q655.0039 878.8343 645.0039 878.8343 L522.0664 878.8343 Q512.0664 878.8343 512.0664 868.8343 Z" stroke="none" clip-path="url(#clipPath2)"/>
      <path fill="url(#linearGradient9)" d="M512.0664 810.1468 Q512.0664 800.1468 522.0664 800.1468 L645.0039 800.1468 Q655.0039 800.1468 655.0039 810.1468 L655.0039 839.4905 L512.0664 839.4905 Z" clip-path="url(#clipPath2)" stroke="none"/>
      <path fill="none" d="M514.0664 810.1468 Q514.0664 802.1468 522.0664 802.1468 L645.0039 802.1468 Q653.0039 802.1468 653.0039 810.1468 L653.0039 868.8343 Q653.0039 876.8343 645.0039 876.8343 L522.0664 876.8343 Q514.0664 876.8343 514.0664 868.8343 Z" stroke-width="2" clip-path="url(#clipPath2)"/>
      <path fill="none" d="M514.0664 810.1468 Q514.0664 802.1468 522.0664 802.1468 L645.0039 802.1468 Q653.0039 802.1468 653.0039 810.1468 L653.0039 868.8343 Q653.0039 876.8343 645.0039 876.8343 L522.0664 876.8343 Q514.0664 876.8343 514.0664 868.8343 Z" clip-path="url(#clipPath2)"/>
    </g>
    <g font-size="20px" stroke-linecap="butt" transform="matrix(1,0,0,1,484,-582)" text-rendering="geometricPrecision" font-family="sans-serif" shape-rendering="geometricPrecision" font-weight="bold" stroke-miterlimit="1.45">
      <text x="553.6377" xml:space="preserve" y="846.4144" clip-path="url(#clipPath2)" stroke="none">Input</text>
    </g>
    <g fill="rgb(153,204,255)" text-rendering="geometricPrecision" shape-rendering="geometricPrecision" transform="matrix(1,0,0,1,484,-582)" stroke="rgb(153,204,255)">
      <path d="M513.5 969.3834 L653.5703 969.3834 L653.5703 999.7272 Q653.5703 1009.7272 643.5703 1009.7272 L523.5 1009.7272 Q513.5 1009.7272 513.5 999.7272 Z" stroke="none" clip-path="url(#clipPath2)"/>
      <path fill="url(#linearGradient10)" d="M513.5 941.0397 Q513.5 931.0397 523.5 931.0397 L643.5703 931.0397 Q653.5703 931.0397 653.5703 941.0397 L653.5703 970.3834 L513.5 970.3834 Z" clip-path="url(#clipPath2)" stroke="none"/>
      <path fill="none" d="M515.5 941.0397 Q515.5 933.0397 523.5 933.0397 L643.5703 933.0397 Q651.5703 933.0397 651.5703 941.0397 L651.5703 999.7272 Q651.5703 1007.7272 643.5703 1007.7272 L523.5 1007.7272 Q515.5 1007.7272 515.5 999.7272 Z" stroke-width="2" clip-path="url(#clipPath2)"/>
      <path fill="none" d="M515.5 941.0397 Q515.5 933.0397 523.5 933.0397 L643.5703 933.0397 Q651.5703 933.0397 651.5703 941.0397 L651.5703 999.7272 Q651.5703 1007.7272 643.5703 1007.7272 L523.5 1007.7272 Q515.5 1007.7272 515.5 999.7272 Z" clip-path="url(#clipPath2)"/>
    </g>
    <g font-size="20px" stroke-linecap="butt" transform="matrix(1,0,0,1,484,-582)" text-rendering="geometricPrecision" font-family="sans-serif" shape-rendering="geometricPrecision" font-weight="bold" stroke-miterlimit="1.45">
      <text x="554.6729" xml:space="preserve" y="977.3073" clip-path="url(#clipPath2)" stroke="none">ToDo</text>
    </g>
    <g fill="rgb(204,255,204)" text-rendering="geometricPrecision" shape-rendering="geometricPrecision" transform="matrix(1,0,0,1,484,-582)" stroke="rgb(204,255,204)">
      <rect x="513.5" y="1061.9326" clip-path="url(#clipPath2)" width="140.0703" rx="1.5" ry="1.5" height="60" stroke="none"/>
      <path fill="url(#linearGradient11)" d="M514.25 1064.9326 Q514.25 1062.6826 516.5 1062.6826 L601.5457 1062.6826 Q603.7957 1062.6826 603.7957 1064.9326 Q603.7957 1067.1826 561.2728 1088.1826 Q518.75 1109.1826 516.5 1109.1826 Q514.25 1109.1826 514.25 1106.9326 Z" clip-path="url(#clipPath2)" stroke="none"/>
    </g>
    <g font-size="20px" stroke-linecap="butt" transform="matrix(1,0,0,1,484,-582)" text-rendering="geometricPrecision" font-family="'Courier New'" shape-rendering="geometricPrecision" font-weight="bold" stroke-miterlimit="1.45">
      <text x="535.5273" xml:space="preserve" y="1097.2549" clip-path="url(#clipPath2)" stroke="none">Contains</text>
    </g>
    <g fill="url(#linearGradient12)" text-rendering="geometricPrecision" shape-rendering="geometricPrecision" transform="matrix(1,0,0,1,484,-582)" stroke="url(#linearGradient12)">
      <path d="M513.4102 1230.4506 C490.0352 1200.7006 513.4102 1174.1381 551.7452 1193.2631 C551.7452 1174.1381 615.3251 1174.1381 615.3251 1193.2631 C653.6602 1174.1381 677.0352 1200.7006 653.6602 1224.0756 C677.0352 1253.8256 653.6602 1280.3881 624.6752 1261.2631 C615.3251 1280.3881 551.7452 1280.3881 561.0952 1261.2631 C513.4102 1280.3881 490.0352 1253.8256 513.4102 1230.4506 Z" stroke="none" clip-path="url(#clipPath2)"/>
    </g>
    <g text-rendering="geometricPrecision" stroke-miterlimit="1.45" shape-rendering="geometricPrecision" transform="matrix(1,0,0,1,484,-582)" stroke-linecap="butt">
      <path fill="none" d="M513.4102 1230.4506 C490.0352 1200.7006 513.4102 1174.1381 551.7452 1193.2631 C551.7452 1174.1381 615.3251 1174.1381 615.3251 1193.2631 C653.6602 1174.1381 677.0352 1200.7006 653.6602 1224.0756 C677.0352 1253.8256 653.6602 1280.3881 624.6752 1261.2631 C615.3251 1280.3881 551.7452 1280.3881 561.0952 1261.2631 C513.4102 1280.3881 490.0352 1253.8256 513.4102 1230.4506 Z" clip-path="url(#clipPath2)"/>
      <text x="521.25" font-size="20px" y="1234.1869" clip-path="url(#clipPath2)" font-family="sans-serif" stroke="none" font-weight="bold" xml:space="preserve">Knowledge</text>
    </g>
    <g fill="rgb(204,255,255)" text-rendering="geometricPrecision" shape-rendering="geometricPrecision" transform="matrix(1,0,0,1,484,-582)" stroke="rgb(204,255,255)">
      <path d="M513.5 1370.9371 L653.5703 1370.9371 L653.5703 1401.2809 Q653.5703 1411.2809 643.5703 1411.2809 L523.5 1411.2809 Q513.5 1411.2809 513.5 1401.2809 Z" stroke="none" clip-path="url(#clipPath2)"/>
      <path fill="url(#linearGradient13)" d="M513.5 1342.5934 Q513.5 1332.5934 523.5 1332.5934 L643.5703 1332.5934 Q653.5703 1332.5934 653.5703 1342.5934 L653.5703 1371.9371 L513.5 1371.9371 Z" clip-path="url(#clipPath2)" stroke="none"/>
      <path fill="none" d="M515.5 1342.5934 Q515.5 1334.5934 523.5 1334.5934 L643.5703 1334.5934 Q651.5703 1334.5934 651.5703 1342.5934 L651.5703 1401.2809 Q651.5703 1409.2809 643.5703 1409.2809 L523.5 1409.2809 Q515.5 1409.2809 515.5 1401.2809 Z" stroke-width="2" clip-path="url(#clipPath2)"/>
      <path fill="none" d="M515.5 1342.5934 Q515.5 1334.5934 523.5 1334.5934 L643.5703 1334.5934 Q651.5703 1334.5934 651.5703 1342.5934 L651.5703 1401.2809 Q651.5703 1409.2809 643.5703 1409.2809 L523.5 1409.2809 Q515.5 1409.2809 515.5 1401.2809 Z" clip-path="url(#clipPath2)"/>
    </g>
    <g font-size="20px" stroke-linecap="butt" transform="matrix(1,0,0,1,484,-582)" text-rendering="geometricPrecision" font-family="sans-serif" shape-rendering="geometricPrecision" font-weight="bold" stroke-miterlimit="1.45">
      <text x="525.1758" xml:space="preserve" y="1378.861" clip-path="url(#clipPath2)" stroke="none">Semantics</text>
    </g>
    <g fill="rgb(245,245,245)" text-rendering="geometricPrecision" shape-rendering="geometricPrecision" transform="matrix(1,0,0,1,484,-582)" stroke="rgb(245,245,245)">
      <rect x="-468.0664" y="1079.4754" clip-path="url(#clipPath2)" width="875.1367" rx="4" ry="4" height="422.8055" stroke="none"/>
      <rect x="-468.0664" y="1079.4754" clip-path="url(#clipPath2)" fill="rgb(235,235,235)" width="875.1367" height="21.4609" stroke="none"/>
    </g>
    <g font-size="15px" stroke-linecap="butt" transform="matrix(1,0,0,1,484,-582)" text-rendering="geometricPrecision" font-family="sans-serif" shape-rendering="geometricPrecision" stroke-miterlimit="1.45">
      <text x="249.2549" xml:space="preserve" y="1095.3988" clip-path="url(#clipPath2)" stroke="none">Semantic Processing</text>
      <rect x="-468.0664" y="1079.4754" clip-path="url(#clipPath2)" fill="none" width="875.1367" stroke-dasharray="6,2" rx="4" ry="4" height="422.8055"/>
    </g>
    <g fill="rgb(204,255,255)" text-rendering="geometricPrecision" shape-rendering="geometricPrecision" transform="matrix(1,0,0,1,484,-582)" stroke="rgb(204,255,255)">
      <path d="M44.6836 1264.4371 L184.7539 1264.4371 L184.7539 1294.7809 Q184.7539 1304.7809 174.7539 1304.7809 L54.6836 1304.7809 Q44.6836 1304.7809 44.6836 1294.7809 Z" stroke="none" clip-path="url(#clipPath2)"/>
      <path fill="url(#linearGradient14)" d="M44.6836 1236.0934 Q44.6836 1226.0934 54.6836 1226.0934 L174.7539 1226.0934 Q184.7539 1226.0934 184.7539 1236.0934 L184.7539 1265.4371 L44.6836 1265.4371 Z" clip-path="url(#clipPath2)" stroke="none"/>
      <path fill="none" d="M46.6836 1236.0934 Q46.6836 1228.0934 54.6836 1228.0934 L174.7539 1228.0934 Q182.7539 1228.0934 182.7539 1236.0934 L182.7539 1294.7809 Q182.7539 1302.7809 174.7539 1302.7809 L54.6836 1302.7809 Q46.6836 1302.7809 46.6836 1294.7809 Z" stroke-width="2" clip-path="url(#clipPath2)"/>
      <path fill="none" d="M46.6836 1236.0934 Q46.6836 1228.0934 54.6836 1228.0934 L174.7539 1228.0934 Q182.7539 1228.0934 182.7539 1236.0934 L182.7539 1294.7809 Q182.7539 1302.7809 174.7539 1302.7809 L54.6836 1302.7809 Q46.6836 1302.7809 46.6836 1294.7809 Z" clip-path="url(#clipPath2)"/>
    </g>
    <g text-rendering="geometricPrecision" stroke-miterlimit="1.45" shape-rendering="geometricPrecision" font-family="sans-serif" transform="matrix(1,0,0,1,484,-582)" stroke-linecap="butt">
      <text x="82.167" xml:space="preserve" y="1269.5914" clip-path="url(#clipPath2)" stroke="none">RDF Graph</text>
    </g>
    <g fill="url(#linearGradient15)" text-rendering="geometricPrecision" shape-rendering="geometricPrecision" transform="matrix(1,0,0,1,484,-582)" stroke="url(#linearGradient15)">
      <path d="M-138.0488 1172.2489 C-159.5488 1142.4989 -138.0488 1115.9364 -102.7888 1135.0614 C-102.7888 1115.9364 -44.3088 1115.9364 -44.3088 1135.0614 C-9.0488 1115.9364 12.4512 1142.4989 -9.0488 1165.8739 C12.4512 1195.6239 -9.0488 1222.1864 -35.7088 1203.0614 C-44.3088 1222.1864 -102.7888 1222.1864 -94.1888 1203.0614 C-138.0488 1222.1864 -159.5488 1195.6239 -138.0488 1172.2489 Z" stroke="none" clip-path="url(#clipPath2)"/>
    </g>
    <g text-rendering="geometricPrecision" stroke-miterlimit="1.45" shape-rendering="geometricPrecision" transform="matrix(1,0,0,1,484,-582)" stroke-linecap="butt">
      <path fill="none" d="M-138.0488 1172.2489 C-159.5488 1142.4989 -138.0488 1115.9364 -102.7888 1135.0614 C-102.7888 1115.9364 -44.3088 1115.9364 -44.3088 1135.0614 C-9.0488 1115.9364 12.4512 1142.4989 -9.0488 1165.8739 C12.4512 1195.6239 -9.0488 1222.1864 -35.7088 1203.0614 C-44.3088 1222.1864 -102.7888 1222.1864 -94.1888 1203.0614 C-138.0488 1222.1864 -159.5488 1195.6239 -138.0488 1172.2489 Z" clip-path="url(#clipPath2)"/>
      <text x="-98.7383" xml:space="preserve" y="1166.2313" clip-path="url(#clipPath2)" font-family="sans-serif" stroke="none">Domain </text>
      <text x="-106.5312" xml:space="preserve" y="1180.2001" clip-path="url(#clipPath2)" font-family="sans-serif" stroke="none">Knowledge</text>
    </g>
    <g fill="rgb(204,255,255)" text-rendering="geometricPrecision" shape-rendering="geometricPrecision" transform="matrix(1,0,0,1,484,-582)" stroke="rgb(204,255,255)">
      <path d="M44.6836 1446.9371 L184.7539 1446.9371 L184.7539 1477.2809 Q184.7539 1487.2809 174.7539 1487.2809 L54.6836 1487.2809 Q44.6836 1487.2809 44.6836 1477.2809 Z" stroke="none" clip-path="url(#clipPath2)"/>
      <path fill="url(#linearGradient16)" d="M44.6836 1418.5934 Q44.6836 1408.5934 54.6836 1408.5934 L174.7539 1408.5934 Q184.7539 1408.5934 184.7539 1418.5934 L184.7539 1447.9371 L44.6836 1447.9371 Z" clip-path="url(#clipPath2)" stroke="none"/>
      <path fill="none" d="M46.6836 1418.5934 Q46.6836 1410.5934 54.6836 1410.5934 L174.7539 1410.5934 Q182.7539 1410.5934 182.7539 1418.5934 L182.7539 1477.2809 Q182.7539 1485.2809 174.7539 1485.2809 L54.6836 1485.2809 Q46.6836 1485.2809 46.6836 1477.2809 Z" stroke-width="2" clip-path="url(#clipPath2)"/>
      <path fill="none" d="M46.6836 1418.5934 Q46.6836 1410.5934 54.6836 1410.5934 L174.7539 1410.5934 Q182.7539 1410.5934 182.7539 1418.5934 L182.7539 1477.2809 Q182.7539 1485.2809 174.7539 1485.2809 L54.6836 1485.2809 Q46.6836 1485.2809 46.6836 1477.2809 Z" clip-path="url(#clipPath2)"/>
    </g>
    <g text-rendering="geometricPrecision" stroke-miterlimit="1.45" shape-rendering="geometricPrecision" font-family="sans-serif" transform="matrix(1,0,0,1,484,-582)" stroke-linecap="butt">
      <text x="80.6758" xml:space="preserve" y="1445.1071" clip-path="url(#clipPath2)" stroke="none">Inferenced </text>
      <text x="82.167" xml:space="preserve" y="1459.0758" clip-path="url(#clipPath2)" stroke="none">RDF Graph</text>
    </g>
    <g text-rendering="geometricPrecision" stroke-miterlimit="1.45" shape-rendering="geometricPrecision" font-family="sans-serif" transform="matrix(1,0,0,1,484,-582)" stroke-linecap="butt">
      <text x="130.3037" xml:space="preserve" y="1359.7477" clip-path="url(#clipPath2)" stroke="none">Reasoning</text>
    </g>
    <g fill="rgb(204,255,204)" text-rendering="geometricPrecision" shape-rendering="geometricPrecision" transform="matrix(1,0,0,1,484,-582)" stroke="rgb(204,255,204)">
      <rect x="-453.0664" y="1135.5614" clip-path="url(#clipPath2)" width="242" rx="1.5" ry="1.5" height="67" stroke="none"/>
      <path fill="url(#linearGradient17)" d="M-452.3164 1138.5614 Q-452.3164 1136.3114 -450.0664 1136.3114 L-298.7664 1136.3114 Q-296.5164 1136.3114 -296.5164 1138.5614 Q-296.5164 1140.8114 -372.1664 1164.6115 Q-447.8164 1188.4114 -450.0664 1188.4114 Q-452.3164 1188.4114 -452.3164 1186.1614 Z" clip-path="url(#clipPath2)" stroke="none"/>
    </g>
    <g text-rendering="geometricPrecision" stroke-miterlimit="1.45" shape-rendering="geometricPrecision" font-family="'Courier New'" transform="matrix(1,0,0,1,484,-582)" stroke-linecap="butt">
      <text x="-378.874" xml:space="preserve" y="1165.4579" clip-path="url(#clipPath2)" stroke="none">SUC has Parts</text>
      <text x="-436.4834" xml:space="preserve" y="1179.0516" clip-path="url(#clipPath2)" stroke="none">Each part has a functionality</text>
    </g>
    <g fill="url(#linearGradient18)" text-rendering="geometricPrecision" shape-rendering="geometricPrecision" transform="matrix(1,0,0,1,484,-582)" stroke="url(#linearGradient18)">
      <path d="M-138.0488 1359.8746 C-159.5488 1330.1246 -138.0488 1303.5621 -102.7888 1322.6871 C-102.7888 1303.5621 -44.3088 1303.5621 -44.3088 1322.6871 C-9.0488 1303.5621 12.4512 1330.1246 -9.0488 1353.4996 C12.4512 1383.2496 -9.0488 1409.8121 -35.7088 1390.6871 C-44.3088 1409.8121 -102.7888 1409.8121 -94.1888 1390.6871 C-138.0488 1409.8121 -159.5488 1383.2496 -138.0488 1359.8746 Z" stroke="none" clip-path="url(#clipPath2)"/>
    </g>
    <g text-rendering="geometricPrecision" stroke-miterlimit="1.45" shape-rendering="geometricPrecision" transform="matrix(1,0,0,1,484,-582)" stroke-linecap="butt">
      <path fill="none" d="M-138.0488 1359.8746 C-159.5488 1330.1246 -138.0488 1303.5621 -102.7888 1322.6871 C-102.7888 1303.5621 -44.3088 1303.5621 -44.3088 1322.6871 C-9.0488 1303.5621 12.4512 1330.1246 -9.0488 1353.4996 C12.4512 1383.2496 -9.0488 1409.8121 -35.7088 1390.6871 C-44.3088 1409.8121 -102.7888 1409.8121 -94.1888 1390.6871 C-138.0488 1409.8121 -159.5488 1383.2496 -138.0488 1359.8746 Z" clip-path="url(#clipPath2)"/>
      <text x="-107.0732" xml:space="preserve" y="1353.8571" clip-path="url(#clipPath2)" font-family="sans-serif" stroke="none">Application</text>
      <text x="-106.5312" xml:space="preserve" y="1367.8258" clip-path="url(#clipPath2)" font-family="sans-serif" stroke="none">Knowledge</text>
    </g>
    <g fill="rgb(204,255,204)" text-rendering="geometricPrecision" shape-rendering="geometricPrecision" transform="matrix(1,0,0,1,484,-582)" stroke="rgb(204,255,204)">
      <rect x="-453.0664" y="1323.1872" clip-path="url(#clipPath2)" width="242" rx="1.5" ry="1.5" height="67" stroke="none"/>
      <path fill="url(#linearGradient19)" d="M-452.3164 1326.1871 Q-452.3164 1323.9371 -450.0664 1323.9371 L-298.7664 1323.9371 Q-296.5164 1323.9371 -296.5164 1326.1871 Q-296.5164 1328.4371 -372.1664 1352.2372 Q-447.8164 1376.0371 -450.0664 1376.0371 Q-452.3164 1376.0371 -452.3164 1373.7871 Z" clip-path="url(#clipPath2)" stroke="none"/>
    </g>
    <g text-rendering="geometricPrecision" stroke-miterlimit="1.45" shape-rendering="geometricPrecision" font-family="'Courier New'" transform="matrix(1,0,0,1,484,-582)" stroke-linecap="butt">
      <text x="-436.4834" xml:space="preserve" y="1353.0836" clip-path="url(#clipPath2)" stroke="none">Robot has ROSTopic JointState</text>
      <text x="-414.8799" xml:space="preserve" y="1366.6774" clip-path="url(#clipPath2)" stroke="none">Robot has ROSAction ...</text>
    </g>
    <g text-rendering="geometricPrecision" stroke-miterlimit="1.45" shape-rendering="geometricPrecision" transform="matrix(1,0,0,1,484,-582)" stroke-linecap="butt">
      <path fill="none" d="M114.7188 1042.2384 L114.7188 1218.0668" clip-path="url(#clipPath2)"/>
      <path d="M114.7188 1226.0668 L119.7188 1214.0668 L114.7188 1217.0668 L109.7188 1214.0668 Z" clip-path="url(#clipPath2)" stroke="none"/>
      <text x="123.4134" xml:space="preserve" y="1179.8755" clip-path="url(#clipPath2)" font-family="sans-serif" stroke="none">Uplifting</text>
      <path fill="none" stroke-dasharray="6,2" d="M-6.8803 1169.0614 L107.2282 1169.0614" clip-path="url(#clipPath2)"/>
      <path stroke-dasharray="6,2" d="M115.2282 1169.0614 L103.2282 1164.0614 L106.2282 1169.0614 L103.2282 1174.0614 Z" clip-path="url(#clipPath2)" stroke="none"/>
      <path fill="none" d="M114.7188 1304.7798 L114.7188 1400.6178" clip-path="url(#clipPath2)"/>
      <path d="M114.7188 1408.6178 L119.7188 1396.6178 L114.7188 1399.6178 L109.7188 1396.6178 Z" clip-path="url(#clipPath2)" stroke="none"/>
      <path fill="none" stroke-dasharray="6,2" d="M-211.0441 1169.0614 L-140.1817 1169.0614" clip-path="url(#clipPath2)"/>
      <path fill="none" stroke-dasharray="6,2" d="M-7.1375 1356.345 L107.7508 1355.7531" clip-path="url(#clipPath2)"/>
      <path stroke-dasharray="6,2" d="M115.7507 1355.7118 L103.725 1350.7738 L106.7508 1355.7582 L103.7766 1360.7736 Z" clip-path="url(#clipPath2)" stroke="none"/>
      <path fill="none" stroke-dasharray="6,2" d="M-211.0441 1356.6871 L-140.1817 1356.6871" clip-path="url(#clipPath2)"/>
    </g>
  </g>
</svg>
